<svg xmlns="http://www.w3.org/2000/svg" width="926.88" height="555.968"><defs><clipPath id="prefix__clip-path"><path id="prefix__Rectangle_9" d="M0 0h926.88v555.968H0z" data-name="Rectangle 9" fill="none"/></clipPath><style>.prefix__cls-3,.prefix__cls-7{fill:none}.prefix__cls-3{stroke:#fff}.prefix__cls-3,.prefix__cls-7{stroke-miterlimit:10;stroke-width:3px}.prefix__cls-4{fill:#fff}.prefix__cls-5{fill:#23a58f}.prefix__cls-6{fill:#91d4f1}.prefix__cls-7{stroke:#23a58f}</style></defs><g id="prefix__Header_Illustration" data-name="Header Illustration" transform="translate(-902.12 -390)"><g id="prefix__Mask_Group_7" data-name="Mask Group 7" transform="translate(902.12 390)"><path id="prefix__Path_6" d="M684.667 330.611V71.044a26.9 26.9 0 00-26.9-26.9H74.877a26.9 26.9 0 00-26.894 26.9v374.195a26.894 26.894 0 0026.894 26.894H657.77a26.9 26.9 0 0026.9-26.894z" class="prefix__cls-3" data-name="Path 6" transform="translate(89.562 82.402)"/><path id="prefix__Line_1" d="M0 0h636.684" class="prefix__cls-3" data-name="Line 1" transform="translate(137.545 204.489)"/><path id="prefix__Path_7" d="M142.439 69.283a16.49 16.49 0 11-16.491-16.488 16.49 16.49 0 0116.491 16.488" class="prefix__cls-4" data-name="Path 7" transform="translate(204.309 98.544)"/><path id="prefix__Path_8" d="M121.236 69.283a16.49 16.49 0 11-16.488-16.488 16.487 16.487 0 0116.488 16.488" class="prefix__cls-5" data-name="Path 8" transform="translate(164.733 98.544)"/><path id="prefix__Path_9" d="M100.031 69.283a16.488 16.488 0 11-16.489-16.488 16.487 16.487 0 0116.488 16.488" class="prefix__cls-6" data-name="Path 9" transform="translate(125.159 98.544)"/><path id="prefix__Rectangle_5" d="M0 0h125.44v106.429H0z" class="prefix__cls-4" data-name="Rectangle 5" transform="translate(198.803 448.106)"/><path id="prefix__Rectangle_6" d="M0 0h125.443v153.248H0z" class="prefix__cls-6" data-name="Rectangle 6" transform="translate(391.787 401.286)"/><path id="prefix__Rectangle_7" d="M0 0h125.443v245.161H0z" class="prefix__cls-4" data-name="Rectangle 7" transform="translate(587.528 309.374)"/><path id="prefix__Path_10" d="M31.383 326.023c54.1-18.225 71.231 32.627 125.328 14.4s36.97-69.081 91.073-87.306 71.239 32.624 125.345 14.4 36.973-69.081 91.081-87.309 71.236 32.624 125.342 14.4 36.981-69.081 91.1-87.312S751.893 139.91 806 121.682" class="prefix__cls-7" data-name="Path 10" transform="translate(58.578 192.768)"/><path id="prefix__Path_11" d="M368.72 111.487l-71.136-13.84 23.583 68.527z" class="prefix__cls-7" data-name="Path 11" transform="translate(555.451 182.262)"/><path id="prefix__Path_12" d="M137.544 456.2H11.629V1.433h427.122v125.118" data-name="Path 12" stroke-linecap="round" stroke-linejoin="round" stroke-dasharray="5 10" stroke="#23a58f" stroke-width="3" fill="none"/><path id="prefix__Rectangle_8" d="M0 0h235.621v86.271H0z" class="prefix__cls-5" data-name="Rectangle 8" transform="translate(59.435 263.913)"/><path id="prefix__Path_13" d="M72.328 121.279a20.507 20.507 0 11-20.5-20.507 20.507 20.507 0 0120.5 20.507" class="prefix__cls-4" data-name="Path 13" transform="translate(58.449 188.095)"/><path id="prefix__Path_14" d="M130.777 309.374a20.507 20.507 0 11-20.5-20.507 20.507 20.507 0 0120.5 20.507z" data-name="Path 14" stroke-width=".5" stroke-miterlimit="10" stroke="#fff" fill="none"/><path id="prefix__Line_2" d="M0 0h85.95" class="prefix__cls-3" data-name="Line 2" transform="translate(166.384 299.291)"/><path id="prefix__Line_3" d="M0 0h85.947" class="prefix__cls-3" data-name="Line 3" transform="translate(165.071 319.457)"/></g></g></svg>