<svg xmlns="http://www.w3.org/2000/svg" width="441.769" height="505.56"><defs><clipPath id="prefix__clip-path"><path id="prefix__Rectangle_3" d="M0 0h441.769v505.56H0z" class="prefix__cls-1" data-name="Rectangle 3"/></clipPath><style>.prefix__cls-1{fill:#23a58f}</style></defs><g id="prefix__Speech_Bubble_Cluster" data-name="Speech Bubble Cluster" transform="translate(-140 -1486.829)"><g id="prefix__Group_3" data-name="Group 3" transform="translate(140 1486.829)"><path id="prefix__Path_2" d="M132.851 116.872c73.861 0 133.261 59.4 133.261 131.817a132.842 132.842 0 01-21.626 73.292c-9.014 13.76-13.323 30.058-10.14 46.2l9.8 49.709a5.763 5.763 0 01-8.588 6.079l-57.162-33.824a60.372 60.372 0 00-35.181-8.565q-5.126.387-10.363.39C58.953 381.966 1.016 324.031 1.016 248.689a131.374 131.374 0 01131.835-131.817z" data-name="Path 2" stroke="#031d26" stroke-linecap="round" stroke-linejoin="round" stroke-dasharray="5 10" fill="none" stroke-width="3"/><path id="prefix__Path_3" d="M220.223 0C146.362 0 86.962 59.4 86.962 131.818a132.869 132.869 0 0021.626 73.292c9.016 13.758 13.325 30.056 10.142 46.195l-9.807 49.711a5.764 5.764 0 008.59 6.077l57.167-33.82a60.335 60.335 0 0135.18-8.573q5.129.387 10.363.39c73.9 0 131.837-57.935 131.837-133.275A131.375 131.375 0 00220.223 0" class="prefix__cls-1" data-name="Path 3" transform="translate(89.711 -.001)"/><path id="prefix__Path_4" d="M297.848 196.631c-73.861 0-133.261 59.4-133.261 131.817a132.859 132.859 0 0021.626 73.297c9.014 13.758 13.325 30.058 10.142 46.195l-9.808 49.705a5.765 5.765 0 008.592 6.077l57.167-33.82a60.329 60.329 0 0135.179-8.567q5.129.387 10.363.39c73.9 0 131.837-57.935 131.837-133.278a131.375 131.375 0 00-131.837-131.816z" data-name="Path 4" stroke="#fff" stroke-miterlimit="10" fill="none" stroke-width="3"/></g></g></svg>